<svg width="244" height="93" viewBox="0 0 244 93" fill="none" xmlns="http://www.w3.org/2000/svg">
    <path d="M50.9844 0.71875V64H36.6875V21.2656L30.9062 64H20.6719L14.6172 22.3203V64H0.28125V0.71875H21.5703C21.7266 1.73438 21.9479 3.17969 22.2344 5.05469C22.5208 6.92969 22.7422 8.45312 22.8984 9.625C23.0807 10.7708 23.3021 12.2812 23.5625 14.1562L25.7891 30.3281L29.5781 0.71875H50.9844ZM86.0234 0.71875L95.3984 64H78.6016L77.7812 52.6328H71.8828L70.9062 64H53.875L62.2734 0.71875H86.0234ZM77.3125 41.4219C76.8958 37.8802 76.5182 34.4427 76.1797 31.1094C75.8672 27.75 75.4115 22.3464 74.8125 14.8984C73.8229 22.0859 73.1198 27.5156 72.7031 31.1875C72.2865 34.8333 71.9479 38.2448 71.6875 41.4219H77.3125ZM98.25 0.71875H109.93C117.716 0.71875 122.964 1.04427 125.672 1.69531C128.38 2.24219 130.62 3.7526 132.391 6.22656C134.109 8.77865 134.969 12.6979 134.969 17.9844C134.969 22.9062 134.344 26.2266 133.094 27.9453C131.87 29.638 129.487 30.6406 125.945 30.9531C129.253 31.8646 131.44 32.9583 132.508 34.2344C133.68 35.6927 134.37 36.9167 134.578 37.9062C134.734 38.6354 134.839 39.7552 134.891 41.2656C134.943 42.776 134.969 44.8073 134.969 47.3594V64H119.695V42.9453C119.695 39.5339 119.422 37.4635 118.875 36.7344C118.328 35.9271 116.922 35.5234 114.656 35.5234V64H98.25V0.71875ZM114.656 11.6172V25.6797C116.583 25.6797 117.885 25.4193 118.562 24.8984C119.318 24.2995 119.695 22.6458 119.695 19.9375V16.4609C119.695 14.4297 119.318 13.1016 118.562 12.4766C117.833 11.9036 116.531 11.6172 114.656 11.6172ZM180.398 0.71875L172.078 64H147.117L137.625 0.71875H154.969C155.464 4.98958 156.023 10.1458 156.648 16.1875C157.273 22.2031 157.781 27.3073 158.172 31.5C158.562 35.6927 158.94 40.1849 159.305 44.9766C159.487 42.5026 159.708 39.5599 159.969 36.1484C160.229 32.7109 160.477 29.4557 160.711 26.3828C160.971 23.2839 161.206 20.4714 161.414 17.9453C161.648 15.4193 161.818 13.5964 161.922 12.4766L163.133 0.71875H180.398ZM183.25 0.796875H210.672V13.4531H199.656V25.4453H209.969V37.4375H199.656V51.3438H211.727V64H183.25V0.796875ZM232.938 0.71875V51.3438H243.016V64H216.531V0.71875H232.938Z" fill="#FF0000"/>
    <path d="M50.9844 0.71875H52.9844V-1.28125H50.9844V0.71875ZM50.9844 64V66H52.9844V64H50.9844ZM36.6875 64H34.6875V66H36.6875V64ZM36.6875 21.2656H38.6875L34.7056 20.9975L36.6875 21.2656ZM30.9062 64V66H32.6539L32.8882 64.2681L30.9062 64ZM20.6719 64L18.6926 64.2875L18.9414 66H20.6719V64ZM14.6172 22.3203L16.5964 22.0328L12.6172 22.3203H14.6172ZM14.6172 64V66H16.6172V64H14.6172ZM0.28125 64H-1.71875V66H0.28125V64ZM0.28125 0.71875V-1.28125H-1.71875V0.71875H0.28125ZM21.5703 0.71875L23.5471 0.414636L23.2861 -1.28125H21.5703V0.71875ZM22.8984 9.625L20.916 9.88933L20.9193 9.91432L20.9233 9.93923L22.8984 9.625ZM23.5625 14.1562L25.5438 13.8835L25.5435 13.8811L23.5625 14.1562ZM25.7891 30.3281L23.8078 30.6009L27.7729 30.582L25.7891 30.3281ZM29.5781 0.71875V-1.28125H27.8178L27.5943 0.464884L29.5781 0.71875ZM48.9844 0.71875V64H52.9844V0.71875H48.9844ZM50.9844 62H36.6875V66H50.9844V62ZM38.6875 64V21.2656H34.6875V64H38.6875ZM34.7056 20.9975L28.9243 63.7319L32.8882 64.2681L38.6694 21.5337L34.7056 20.9975ZM30.9062 62H20.6719V66H30.9062V62ZM22.6511 63.7125L16.5964 22.0328L12.638 22.6078L18.6926 64.2875L22.6511 63.7125ZM12.6172 22.3203V64H16.6172V22.3203H12.6172ZM14.6172 62H0.28125V66H14.6172V62ZM2.28125 64V0.71875H-1.71875V64H2.28125ZM0.28125 2.71875H21.5703V-1.28125H0.28125V2.71875ZM19.5936 1.02286C19.7497 2.03745 19.9709 3.48196 20.2573 5.35674L24.2114 4.75264C23.9249 2.87742 23.7035 1.4313 23.5471 0.414636L19.5936 1.02286ZM20.2573 5.35674C20.5428 7.22569 20.7621 8.73521 20.916 9.88933L24.8809 9.36067C24.7223 8.17104 24.4988 6.63369 24.2114 4.75264L20.2573 5.35674ZM20.9233 9.93923C21.1026 11.0666 21.3219 12.5624 21.5815 14.4314L25.5435 13.8811C25.2822 12.0001 25.0588 10.4751 24.8736 9.31077L20.9233 9.93923ZM21.5812 14.429L23.8078 30.6009L27.7704 30.0553L25.5438 13.8835L21.5812 14.429ZM27.7729 30.582L31.5619 0.972616L27.5943 0.464884L23.8052 30.0743L27.7729 30.582ZM29.5781 2.71875H50.9844V-1.28125H29.5781V2.71875ZM86.0234 0.71875L88.0018 0.425653L87.749 -1.28125H86.0234V0.71875ZM95.3984 64V66H97.7166L97.3768 63.7069L95.3984 64ZM78.6016 64L76.6068 64.144L76.7407 66H78.6016V64ZM77.7812 52.6328L79.7761 52.4889L79.6421 50.6328H77.7812V52.6328ZM71.8828 52.6328V50.6328H70.0473L69.8902 52.4616L71.8828 52.6328ZM70.9062 64V66H72.7418L72.8989 64.1712L70.9062 64ZM53.875 64L51.8924 63.7369L51.592 66H53.875V64ZM62.2734 0.71875V-1.28125H60.5213L60.2908 0.455625L62.2734 0.71875ZM77.3125 41.4219V43.4219H79.5616L79.2988 41.1882L77.3125 41.4219ZM76.1797 31.1094L74.1883 31.2946L74.1891 31.303L74.1899 31.3115L76.1797 31.1094ZM74.8125 14.8984L76.8061 14.7381L72.8312 14.6256L74.8125 14.8984ZM72.7031 31.1875L74.6902 31.4146L74.6904 31.413L72.7031 31.1875ZM71.6875 41.4219L69.6942 41.2585L69.5169 43.4219H71.6875V41.4219ZM84.045 1.01185L93.42 64.2931L97.3768 63.7069L88.0018 0.425653L84.045 1.01185ZM95.3984 62H78.6016V66H95.3984V62ZM80.5964 63.856L79.7761 52.4889L75.7864 52.7768L76.6068 64.144L80.5964 63.856ZM77.7812 50.6328H71.8828V54.6328H77.7812V50.6328ZM69.8902 52.4616L68.9136 63.8288L72.8989 64.1712L73.8755 52.804L69.8902 52.4616ZM70.9062 62H53.875V66H70.9062V62ZM55.8576 64.2631L64.2561 0.981875L60.2908 0.455625L51.8924 63.7369L55.8576 64.2631ZM62.2734 2.71875H86.0234V-1.28125H62.2734V2.71875ZM79.2988 41.1882C78.8833 37.6564 78.5069 34.2294 78.1694 30.9073L74.1899 31.3115C74.5296 34.656 74.9084 38.104 75.3262 41.6556L79.2988 41.1882ZM78.1711 30.9241C77.8598 27.5781 77.405 22.1852 76.8061 14.7381L72.8189 15.0588C73.418 22.5075 73.8745 27.9219 74.1883 31.2946L78.1711 30.9241ZM72.8312 14.6256C71.8411 21.817 71.1353 27.2657 70.7159 30.962L74.6904 31.413C75.1043 27.7655 75.8048 22.3549 76.7938 15.1712L72.8312 14.6256ZM70.7161 30.9604C70.2973 34.6244 69.9566 38.0573 69.6942 41.2585L73.6808 41.5853C73.9393 38.4323 74.2756 35.0423 74.6902 31.4146L70.7161 30.9604ZM71.6875 43.4219H77.3125V39.4219H71.6875V43.4219ZM98.25 0.71875V-1.28125H96.25V0.71875H98.25ZM125.672 1.69531L125.204 3.63992L125.24 3.64849L125.276 3.65575L125.672 1.69531ZM132.391 6.22656L134.049 5.10936L134.034 5.08568L134.017 5.06247L132.391 6.22656ZM133.094 27.9453L131.476 26.769L131.473 26.7734L133.094 27.9453ZM125.945 30.9531L125.77 28.9609L125.414 32.8812L125.945 30.9531ZM132.508 34.2344L134.067 32.9816L134.054 32.9661L134.042 32.9509L132.508 34.2344ZM134.578 37.9062L132.621 38.3183L132.623 38.3253L134.578 37.9062ZM134.969 64V66H136.969V64H134.969ZM119.695 64H117.695V66H119.695V64ZM118.875 36.7344L117.219 37.8561L117.246 37.8959L117.275 37.9344L118.875 36.7344ZM114.656 35.5234V33.5234H112.656V35.5234H114.656ZM114.656 64V66H116.656V64H114.656ZM98.25 64H96.25V66H98.25V64ZM114.656 11.6172V9.61719H112.656V11.6172H114.656ZM114.656 25.6797H112.656V27.6797H114.656V25.6797ZM118.562 24.8984L119.782 26.4837L119.794 26.4746L119.805 26.4654L118.562 24.8984ZM118.562 12.4766L119.838 10.9358L119.818 10.9196L119.798 10.9039L118.562 12.4766ZM98.25 2.71875H109.93V-1.28125H98.25V2.71875ZM109.93 2.71875C117.745 2.71875 122.761 3.0525 125.204 3.63992L126.139 -0.249292C123.166 -0.963962 117.688 -1.28125 109.93 -1.28125V2.71875ZM125.276 3.65575C127.436 4.09195 129.256 5.28305 130.764 7.39066L134.017 5.06247C131.984 2.22215 129.324 0.392429 126.068 -0.26512L125.276 3.65575ZM130.732 7.34376C132.119 9.40426 132.969 12.8422 132.969 17.9844H136.969C136.969 12.5536 136.099 8.15303 134.049 5.10936L130.732 7.34376ZM132.969 17.9844C132.969 20.372 132.816 22.2993 132.535 23.796C132.248 25.3181 131.854 26.2496 131.476 26.769L134.711 29.1217C135.583 27.9223 136.127 26.3343 136.465 24.536C136.809 22.7124 136.969 20.5187 136.969 17.9844H132.969ZM131.473 26.7734C130.765 27.7524 129.122 28.6651 125.77 28.9609L126.121 32.9454C129.852 32.6162 132.974 31.5236 134.714 29.1172L131.473 26.7734ZM125.414 32.8812C128.669 33.7784 130.327 34.7443 130.974 35.5178L134.042 32.9509C132.554 31.1724 129.836 29.9508 126.477 29.025L125.414 32.8812ZM130.949 35.4872C132.064 36.8751 132.512 37.7988 132.621 38.3183L136.535 37.4942C136.228 36.0346 135.295 34.5103 134.067 32.9816L130.949 35.4872ZM132.623 38.3253C132.74 38.874 132.841 39.8479 132.892 41.3345L136.889 41.1967C136.837 39.6625 136.729 38.3968 136.534 37.4872L132.623 38.3253ZM132.892 41.3345C132.943 42.8117 132.969 44.817 132.969 47.3594H136.969C136.969 44.7976 136.943 42.7403 136.889 41.1967L132.892 41.3345ZM132.969 47.3594V64H136.969V47.3594H132.969ZM134.969 62H119.695V66H134.969V62ZM121.695 64V42.9453H117.695V64H121.695ZM121.695 42.9453C121.695 41.1994 121.626 39.7309 121.473 38.5721C121.335 37.5305 121.09 36.3549 120.475 35.5344L117.275 37.9344C117.206 37.843 117.372 38.0672 117.507 39.0959C117.628 40.0073 117.695 41.2798 117.695 42.9453H121.695ZM120.531 35.6127C119.891 34.668 118.898 34.1726 117.962 33.9038C117.01 33.6304 115.885 33.5234 114.656 33.5234V37.5234C115.693 37.5234 116.405 37.6183 116.858 37.7485C117.328 37.8834 117.312 37.9935 117.219 37.8561L120.531 35.6127ZM112.656 35.5234V64H116.656V35.5234H112.656ZM114.656 62H98.25V66H114.656V62ZM100.25 64V0.71875H96.25V64H100.25ZM112.656 11.6172V25.6797H116.656V11.6172H112.656ZM114.656 27.6797C115.698 27.6797 116.647 27.6103 117.47 27.4455C118.272 27.2852 119.102 27.0065 119.782 26.4837L117.343 23.3132C117.346 23.3112 117.187 23.4231 116.686 23.5232C116.207 23.6189 115.541 23.6797 114.656 23.6797V27.6797ZM119.805 26.4654C120.723 25.7374 121.141 24.6227 121.362 23.6542C121.598 22.6214 121.695 21.364 121.695 19.9375H117.695C117.695 21.2193 117.604 22.143 117.462 22.7638C117.306 23.4489 117.157 23.4605 117.32 23.3314L119.805 26.4654ZM121.695 19.9375V16.4609H117.695V19.9375H121.695ZM121.695 16.4609C121.695 15.3387 121.593 14.2987 121.336 13.3945C121.08 12.4944 120.631 11.592 119.838 10.9358L117.287 14.0174C117.25 13.9861 117.367 14.0602 117.488 14.4884C117.609 14.9123 117.695 15.5519 117.695 16.4609H121.695ZM119.798 10.9039C118.502 9.88575 116.596 9.61719 114.656 9.61719V13.6172C116.466 13.6172 117.164 13.9215 117.327 14.0492L119.798 10.9039ZM180.398 0.71875L182.381 0.979469L182.679 -1.28125H180.398V0.71875ZM172.078 64V66H173.832L174.061 64.2607L172.078 64ZM147.117 64L145.139 64.2967L145.395 66H147.117V64ZM137.625 0.71875V-1.28125H135.303L135.647 1.01543L137.625 0.71875ZM154.969 0.71875L156.955 0.488582L156.75 -1.28125H154.969V0.71875ZM156.648 16.1875L154.659 16.3933L154.659 16.3942L156.648 16.1875ZM159.305 44.9766L157.31 45.1283L161.299 45.1235L159.305 44.9766ZM159.969 36.1484L161.963 36.3007L161.963 36.2995L159.969 36.1484ZM160.711 26.3828L158.718 26.2153L158.717 26.223L158.717 26.2307L160.711 26.3828ZM161.414 17.9453L159.423 17.7605L159.422 17.7707L159.421 17.7809L161.414 17.9453ZM161.922 12.4766L159.932 12.2717L159.931 12.2815L159.93 12.2913L161.922 12.4766ZM163.133 0.71875V-1.28125H161.328L161.143 0.513854L163.133 0.71875ZM178.415 0.458031L170.095 63.7393L174.061 64.2607L182.381 0.979469L178.415 0.458031ZM172.078 62H147.117V66H172.078V62ZM149.095 63.7033L139.603 0.422069L135.647 1.01543L145.139 64.2967L149.095 63.7033ZM137.625 2.71875H154.969V-1.28125H137.625V2.71875ZM152.982 0.948918C153.476 5.20909 154.035 10.3567 154.659 16.3933L158.638 15.9817C158.012 9.93493 157.451 4.77007 156.955 0.488582L152.982 0.948918ZM154.659 16.3942C155.284 22.4055 155.791 27.5022 156.18 31.6855L160.163 31.3145C159.772 27.1124 159.263 22.0007 158.638 15.9808L154.659 16.3942ZM156.18 31.6855C156.57 35.8655 156.947 40.3464 157.31 45.1283L161.299 44.8248C160.934 40.0234 160.555 35.5199 160.163 31.3145L156.18 31.6855ZM161.299 45.1235C161.481 42.6518 161.703 39.711 161.963 36.3007L157.975 35.9962C157.714 39.4088 157.493 42.3534 157.31 44.8296L161.299 45.1235ZM161.963 36.2995C162.223 32.8623 162.471 29.6075 162.705 26.5349L158.717 26.2307C158.482 29.304 158.235 32.5596 157.974 35.9974L161.963 36.2995ZM162.704 26.5503C162.964 23.4505 163.199 20.637 163.407 18.1097L159.421 17.7809C159.213 20.3057 158.978 23.1172 158.718 26.2153L162.704 26.5503ZM163.406 18.1301C163.64 15.6041 163.809 13.7813 163.913 12.6618L159.93 12.2913C159.826 13.4114 159.657 15.2345 159.423 17.7605L163.406 18.1301ZM163.911 12.6815L165.122 0.923646L161.143 0.513854L159.932 12.2717L163.911 12.6815ZM163.133 2.71875H180.398V-1.28125H163.133V2.71875ZM183.25 0.796875V-1.20312H181.25V0.796875H183.25ZM210.672 0.796875H212.672V-1.20312H210.672V0.796875ZM210.672 13.4531V15.4531H212.672V13.4531H210.672ZM199.656 13.4531V11.4531H197.656V13.4531H199.656ZM199.656 25.4453H197.656V27.4453H199.656V25.4453ZM209.969 25.4453H211.969V23.4453H209.969V25.4453ZM209.969 37.4375V39.4375H211.969V37.4375H209.969ZM199.656 37.4375V35.4375H197.656V37.4375H199.656ZM199.656 51.3438H197.656V53.3438H199.656V51.3438ZM211.727 51.3438H213.727V49.3438H211.727V51.3438ZM211.727 64V66H213.727V64H211.727ZM183.25 64H181.25V66H183.25V64ZM183.25 2.79688H210.672V-1.20312H183.25V2.79688ZM208.672 0.796875V13.4531H212.672V0.796875H208.672ZM210.672 11.4531H199.656V15.4531H210.672V11.4531ZM197.656 13.4531V25.4453H201.656V13.4531H197.656ZM199.656 27.4453H209.969V23.4453H199.656V27.4453ZM207.969 25.4453V37.4375H211.969V25.4453H207.969ZM209.969 35.4375H199.656V39.4375H209.969V35.4375ZM197.656 37.4375V51.3438H201.656V37.4375H197.656ZM199.656 53.3438H211.727V49.3438H199.656V53.3438ZM209.727 51.3438V64H213.727V51.3438H209.727ZM211.727 62H183.25V66H211.727V62ZM185.25 64V0.796875H181.25V64H185.25ZM232.938 0.71875H234.938V-1.28125H232.938V0.71875ZM232.938 51.3438H230.938V53.3438H232.938V51.3438ZM243.016 51.3438H245.016V49.3438H243.016V51.3438ZM243.016 64V66H245.016V64H243.016ZM216.531 64H214.531V66H216.531V64ZM216.531 0.71875V-1.28125H214.531V0.71875H216.531ZM230.938 0.71875V51.3438H234.938V0.71875H230.938ZM232.938 53.3438H243.016V49.3438H232.938V53.3438ZM241.016 51.3438V64H245.016V51.3438H241.016ZM243.016 62H216.531V66H243.016V62ZM218.531 64V0.71875H214.531V64H218.531ZM216.531 2.71875H232.938V-1.28125H216.531V2.71875Z" fill="black"/>
    <path d="M4.88 92.3C3.3 92.3 2.09 91.85 1.25 90.95C0.43 90.05 0.0200001 88.78 0.0200001 87.14V75.86C0.0200001 74.22 0.43 72.95 1.25 72.05C2.09 71.15 3.3 70.7 4.88 70.7C6.46 70.7 7.66 71.15 8.48 72.05C9.32 72.95 9.74 74.22 9.74 75.86V78.08H6.62V75.65C6.62 74.35 6.07 73.7 4.97 73.7C3.87 73.7 3.32 74.35 3.32 75.65V87.38C3.32 88.66 3.87 89.3 4.97 89.3C6.07 89.3 6.62 88.66 6.62 87.38V84.17H9.74V87.14C9.74 88.78 9.32 90.05 8.48 90.95C7.66 91.85 6.46 92.3 4.88 92.3ZM14.5644 71H17.8644V92H14.5644V71ZM23.1859 71H27.3259L30.5359 83.57H30.5959V71H33.5359V92H30.1459L26.1859 76.67H26.1259V92H23.1859V71ZM38.8386 71H47.8386V74H42.1386V79.55H46.6686V82.55H42.1386V89H47.8386V92H38.8386V71ZM52.587 71H57.297L59.397 86.03H59.457L61.557 71H66.267V92H63.147V76.1H63.087L60.687 92H57.927L55.527 76.1H55.467V92H52.587V71ZM74.1296 71H78.5996L82.0196 92H78.7196L78.1196 87.83V87.89H74.3696L73.7696 92H70.7096L74.1296 71ZM77.7296 85.04L76.2596 74.66H76.1996L74.7596 85.04H77.7296ZM87.6737 74H84.2237V71H94.4237V74H90.9737V92H87.6737V74ZM98.8714 71H102.171V92H98.8714V71ZM112.143 92.3C110.563 92.3 109.353 91.85 108.513 90.95C107.693 90.05 107.283 88.78 107.283 87.14V75.86C107.283 74.22 107.693 72.95 108.513 72.05C109.353 71.15 110.563 70.7 112.143 70.7C113.723 70.7 114.923 71.15 115.743 72.05C116.583 72.95 117.003 74.22 117.003 75.86V78.08H113.883V75.65C113.883 74.35 113.333 73.7 112.233 73.7C111.133 73.7 110.583 74.35 110.583 75.65V87.38C110.583 88.66 111.133 89.3 112.233 89.3C113.333 89.3 113.883 88.66 113.883 87.38V84.17H117.003V87.14C117.003 88.78 116.583 90.05 115.743 90.95C114.923 91.85 113.723 92.3 112.143 92.3ZM134.282 92.3C132.682 92.3 131.462 91.85 130.622 90.95C129.782 90.03 129.362 88.72 129.362 87.02V71H132.662V87.26C132.662 87.98 132.802 88.5 133.082 88.82C133.382 89.14 133.802 89.3 134.342 89.3C134.882 89.3 135.292 89.14 135.572 88.82C135.872 88.5 136.022 87.98 136.022 87.26V71H139.202V87.02C139.202 88.72 138.782 90.03 137.942 90.95C137.102 91.85 135.882 92.3 134.282 92.3ZM144.402 71H148.542L151.752 83.57H151.812V71H154.752V92H151.362L147.402 76.67H147.342V92H144.402V71ZM160.055 71H163.355V92H160.055V71ZM167.806 71H171.136L173.296 87.29H173.356L175.516 71H178.546L175.366 92H170.986L167.806 71ZM182.982 71H191.982V74H186.282V79.55H190.812V82.55H186.282V89H191.982V92H182.982V71ZM196.73 71H201.62C203.32 71 204.56 71.4 205.34 72.2C206.12 72.98 206.51 74.19 206.51 75.83V77.12C206.51 79.3 205.79 80.68 204.35 81.26V81.32C205.15 81.56 205.71 82.05 206.03 82.79C206.37 83.53 206.54 84.52 206.54 85.76V89.45C206.54 90.05 206.56 90.54 206.6 90.92C206.64 91.28 206.74 91.64 206.9 92H203.54C203.42 91.66 203.34 91.34 203.3 91.04C203.26 90.74 203.24 90.2 203.24 89.42V85.58C203.24 84.62 203.08 83.95 202.76 83.57C202.46 83.19 201.93 83 201.17 83H200.03V92H196.73V71ZM201.23 80C201.89 80 202.38 79.83 202.7 79.49C203.04 79.15 203.21 78.58 203.21 77.78V76.16C203.21 75.4 203.07 74.85 202.79 74.51C202.53 74.17 202.11 74 201.53 74H200.03V80H201.23ZM215.97 92.3C214.37 92.3 213.16 91.85 212.34 90.95C211.52 90.03 211.11 88.72 211.11 87.02V85.82H214.23V87.26C214.23 88.62 214.8 89.3 215.94 89.3C216.5 89.3 216.92 89.14 217.2 88.82C217.5 88.48 217.65 87.94 217.65 87.2C217.65 86.32 217.45 85.55 217.05 84.89C216.65 84.21 215.91 83.4 214.83 82.46C213.47 81.26 212.52 80.18 211.98 79.22C211.44 78.24 211.17 77.14 211.17 75.92C211.17 74.26 211.59 72.98 212.43 72.08C213.27 71.16 214.49 70.7 216.09 70.7C217.67 70.7 218.86 71.16 219.66 72.08C220.48 72.98 220.89 74.28 220.89 75.98V76.85H217.77V75.77C217.77 75.05 217.63 74.53 217.35 74.21C217.07 73.87 216.66 73.7 216.12 73.7C215.02 73.7 214.47 74.37 214.47 75.71C214.47 76.47 214.67 77.18 215.07 77.84C215.49 78.5 216.24 79.3 217.32 80.24C218.7 81.44 219.65 82.53 220.17 83.51C220.69 84.49 220.95 85.64 220.95 86.96C220.95 88.68 220.52 90 219.66 90.92C218.82 91.84 217.59 92.3 215.97 92.3ZM225.692 71H234.692V74H228.992V79.55H233.522V82.55H228.992V89H234.692V92H225.692V71Z" fill="white"/>
</svg>
