<svg width="30" height="30" viewBox="0 0 30 30" fill="none" xmlns="http://www.w3.org/2000/svg">
    <path d="M30 24.2857V25.7143H0V24.2857L3.33333 21.4286V12.8571C3.33333 8.42857 6.71667 4.52857 11.6667 3.27143V2.85714C11.6667 2.09938 12.0179 1.37266 12.643 0.836838C13.2681 0.301019 14.1159 0 15 0C15.8841 0 16.7319 0.301019 17.357 0.836838C17.9821 1.37266 18.3333 2.09938 18.3333 2.85714V3.27143C23.2833 4.52857 26.6667 8.42857 26.6667 12.8571V21.4286L30 24.2857ZM18.3333 27.1429C18.3333 27.9006 17.9821 28.6273 17.357 29.1632C16.7319 29.699 15.8841 30 15 30C14.1159 30 13.2681 29.699 12.643 29.1632C12.0179 28.6273 11.6667 27.9006 11.6667 27.1429" fill="white"/>
</svg>
