<svg width="182" height="34" viewBox="0 0 182 34" fill="none" xmlns="http://www.w3.org/2000/svg">
    <path d="M15.0979 5.8541C15.6966 4.01148 18.3034 4.01148 18.9021 5.8541L20.3677 10.3647C20.6355 11.1888 21.4034 11.7467 22.2698 11.7467L27.0126 11.7467C28.95 11.7467 29.7556 14.2259 28.1882 15.3647L24.3512 18.1525C23.6502 18.6618 23.3569 19.5645 23.6246 20.3885L25.0902 24.8992C25.6889 26.7418 23.58 28.2741 22.0126 27.1353L18.1756 24.3475C17.4746 23.8382 16.5254 23.8382 15.8244 24.3475L11.9874 27.1353C10.42 28.2741 8.31106 26.7418 8.90976 24.8992L10.3754 20.3885C10.6431 19.5645 10.3498 18.6618 9.64882 18.1525L5.81183 15.3647C4.24441 14.2259 5.04996 11.7467 6.9874 11.7467L11.7302 11.7467C12.5966 11.7467 13.3645 11.1888 13.6323 10.3647L15.0979 5.8541Z" fill="#FFE600"/>
    <path d="M51.0979 5.8541C51.6966 4.01148 54.3034 4.01148 54.9021 5.8541L56.3677 10.3647C56.6355 11.1888 57.4034 11.7467 58.2698 11.7467L63.0126 11.7467C64.95 11.7467 65.7556 14.2259 64.1882 15.3647L60.3512 18.1525C59.6502 18.6618 59.3569 19.5645 59.6246 20.3885L61.0902 24.8992C61.6889 26.7418 59.58 28.2741 58.0126 27.1353L54.1756 24.3475C53.4746 23.8382 52.5254 23.8382 51.8244 24.3475L47.9874 27.1353C46.42 28.2741 44.3111 26.7418 44.9098 24.8992L46.3754 20.3885C46.6431 19.5645 46.3498 18.6618 45.6488 18.1525L41.8118 15.3647C40.2444 14.2259 41.05 11.7467 42.9874 11.7467L47.7302 11.7467C48.5966 11.7467 49.3645 11.1888 49.6323 10.3647L51.0979 5.8541Z" fill="#FFE600"/>
    <path d="M89.0979 5.8541C89.6966 4.01148 92.3034 4.01148 92.9021 5.8541L94.3677 10.3647C94.6355 11.1888 95.4034 11.7467 96.2698 11.7467L101.013 11.7467C102.95 11.7467 103.756 14.2259 102.188 15.3647L98.3512 18.1525C97.6502 18.6618 97.3569 19.5645 97.6246 20.3885L99.0902 24.8992C99.6889 26.7418 97.58 28.2741 96.0126 27.1353L92.1756 24.3475C91.4746 23.8382 90.5254 23.8382 89.8244 24.3475L85.9874 27.1353C84.42 28.2741 82.3111 26.7418 82.9098 24.8992L84.3754 20.3885C84.6431 19.5645 84.3498 18.6618 83.6488 18.1525L79.8118 15.3647C78.2444 14.2259 79.05 11.7467 80.9874 11.7467L85.7302 11.7467C86.5966 11.7467 87.3645 11.1888 87.6323 10.3647L89.0979 5.8541Z" fill="#FFE600"/>
    <path d="M127.098 5.8541C127.697 4.01148 130.303 4.01148 130.902 5.8541L132.368 10.3647C132.635 11.1888 133.403 11.7467 134.27 11.7467L139.013 11.7467C140.95 11.7467 141.756 14.2259 140.188 15.3647L136.351 18.1525C135.65 18.6618 135.357 19.5645 135.625 20.3885L137.09 24.8992C137.689 26.7418 135.58 28.2741 134.013 27.1353L130.176 24.3475C129.475 23.8382 128.525 23.8382 127.824 24.3475L123.987 27.1353C122.42 28.2741 120.311 26.7418 120.91 24.8992L122.375 20.3885C122.643 19.5645 122.35 18.6618 121.649 18.1525L117.812 15.3647C116.244 14.2259 117.05 11.7467 118.987 11.7467L123.73 11.7467C124.597 11.7467 125.365 11.1888 125.632 10.3647L127.098 5.8541Z" fill="#FFE600"/>
    <path d="M163.573 6.00861C164.022 4.62664 165.978 4.62664 166.427 6.00861L167.892 10.5193C168.227 11.5493 169.187 12.2467 170.27 12.2467L175.013 12.2467C176.466 12.2467 177.07 14.1061 175.894 14.9602L172.057 17.748C171.181 18.3846 170.814 19.513 171.149 20.5431L172.615 25.0537C173.064 26.4357 171.482 27.5848 170.306 26.7307L166.469 23.943C165.593 23.3064 164.407 23.3064 163.531 23.943L159.694 26.7307C158.518 27.5848 156.936 26.4357 157.385 25.0537L158.851 20.5431C159.186 19.513 158.819 18.3846 157.943 17.748L154.106 14.9602C152.93 14.1061 153.534 12.2467 154.987 12.2467L159.73 12.2467C160.813 12.2467 161.773 11.5493 162.108 10.5193L163.573 6.00861Z" stroke="white"/>
</svg>
